<?xml version="1.0" encoding="utf-8"?>
<!-- Generator: Adobe Illustrator 18.1.1, SVG Export Plug-In . SVG Version: 6.00 Build 0)  -->
<svg version="1.1" id="Layer_1" xmlns="http://www.w3.org/2000/svg" xmlns:xlink="http://www.w3.org/1999/xlink" x="0px" y="0px"
	 viewBox="0 0 792 612" enable-background="new 0 0 792 612" xml:space="preserve">
<g>
	<path fill="#001837" d="M91,466.1c-0.5-3.4-2.4-9.7-3.4-13.1l-1.5-0.5c-9.2,9.2-18.9,16.4-34.4,16.4c-17.4,0-33.9-8.2-33.9-35.3
		c0-20.3,9.7-28.1,19.4-31.4c7.3-2.9,24.2-7.3,45-11.6v-9.2c0-9.2-2.4-15.5-13.5-15.5c-8.2,0-18.9,2.9-36.3,8.2l-7.7-23.7
		c15.5-6.3,36.8-11.1,52.3-11.1c30.5,0,38.7,15.5,38.7,42.6v46c0,9.2,2.9,28.5,5.8,38.2H91z M82.2,411.5
		c-12.1,3.4-18.4,5.3-25.2,8.2c-4.8,2.4-6.8,6.3-6.8,11.6c0,7.7,4.4,12.6,12.1,12.6s15.5-5.3,19.8-9.7V411.5z"/>
	<path fill="#001837" d="M182.4,466.1h-35.3V332.6c-0.5-12.6-1.5-26.1-3.9-42.6c10.6-1,24.7-2.4,38.7-5.3v181.4H182.4z"/>
	<path fill="#001837" d="M228.8,284.7c11.6,0,21.3,7.7,21.3,19.4c0,11.1-9.2,19.4-21.3,19.4s-21.3-7.7-21.3-19.4
		C207.6,292.9,216.7,284.7,228.8,284.7z"/>
	<path fill="#001837" d="M247.7,466.1h-35.3v-78.4c-0.5-10.6-1-22.3-3.9-42.6c10.6-1,25.2-2.4,38.7-5.3v126.3H247.7z"/>
	<path fill="#001837" d="M303.4,342.8l22.3,88.1h1.9l24.2-88.1h36.8L355.1,442l-6.3,24.2h-45.5l-37.7-123.9h37.7V342.8z"/>
	<path fill="#001837" d="M405.9,430.3c14,0,21.3,8.2,21.3,18.9c0,10.2-6.3,19.4-20.8,19.4c-15,0-21.3-8.7-21.3-19.4
		C385.1,439,392.4,430.3,405.9,430.3z"/>
	<path fill="#001837" d="M468.3,284.7c11.6,0,21.3,7.7,21.3,19.4c0,11.1-9.2,19.4-21.3,19.4s-21.3-7.7-21.3-19.4
		C447,292.9,456.2,284.7,468.3,284.7z"/>
	<path fill="#001837" d="M487.2,466.1h-35.3v-78.4c-0.5-10.6-1-22.3-3.9-42.6c10.6-1,25.2-2.4,38.7-5.3v126.3H487.2z"/>
	<path fill="#001837" d="M510.4,403.7c0-40.6,26.1-64.3,62.4-64.3c35.3,0,59.5,22.3,59.5,60.5c0,45-22.3,69.2-61.4,69.2
		C531.7,469.5,510.4,442.4,510.4,403.7z M595.6,406.6c0-21.3-6.8-39.2-24.7-39.2c-16.4,0-24.7,14.5-24.7,34.4
		c0,19.4,5.8,40.2,25.2,40.2C588.8,441.5,595.6,426,595.6,406.6z"/>
</g>
<g>
	<g>
		<circle fill="#0098E0" cx="734.9" cy="284.2" r="15"/>
	</g>
	<g>
		<circle fill="#0098E0" cx="631.9" cy="181.7" r="15"/>
	</g>
	<g>
		<circle fill="#0098E0" cx="734.9" cy="181.7" r="15"/>
	</g>
	<g>
		<circle fill="#0098E0" cx="631.9" cy="284.2" r="15"/>
	</g>
	<g>
		<circle fill="#0098E0" cx="756.2" cy="232.9" r="17.9"/>
	</g>
	<g>
		<circle fill="#0098E0" cx="610.6" cy="232.9" r="17.9"/>
	</g>
	<g>
		<circle fill="#0098E0" cx="683.6" cy="160.4" r="17.9"/>
	</g>
	<g>
		<circle fill="#0098E0" cx="683.6" cy="306" r="17.9"/>
	</g>
	<g>
		<path fill="#0098E0" d="M683.6,288.1l-55.2-55.2l55.2-55.2l55.2,55.2L683.6,288.1z M656.5,232.9l27.1,27.1l27.1-27.1l-27.1-27.1
			L656.5,232.9z"/>
	</g>
</g>
</svg>
